<svg width="62" height="61" viewBox="0 0 62 61" fill="none" xmlns="http://www.w3.org/2000/svg">
<path fill-rule="evenodd" clip-rule="evenodd" d="M60.5 1.98355C60.5 2.52641 60.0598 2.96664 59.5165 2.96664H52.6335V18.7002H58.5334C59.6191 18.7011 60.4986 19.5811 60.5 20.6668V58.0334C60.4986 59.1191 59.6191 59.9986 58.5334 60H5.43327C4.34755 59.9986 3.46799 59.1191 3.46664 58.0334V50.1668H2.48354C1.94023 50.1668 1.5 49.7266 1.5 49.1833C1.5 48.6404 1.94023 48.2002 2.48354 48.2002H8.38345V25.5125L4.43938 29.0749C3.82089 29.6348 3.46754 30.4298 3.46664 31.2643V34.4333C3.46664 34.9766 3.02641 35.4168 2.48354 35.4168C1.94023 35.4168 1.5 34.9766 1.5 34.4333V31.2643C1.5009 29.8734 2.09013 28.5478 3.12183 27.6151L31.4659 2.0146C32.1879 1.36101 33.1278 0.999101 34.1019 1H59.5165C60.0598 1 60.5 1.44023 60.5 1.98355ZM40.8332 2.96664H34.1019C33.6148 2.96619 33.1453 3.14669 32.7843 3.47349L31.9835 4.19686V28.5334H34.9333C35.4761 28.5329 35.9164 28.0927 35.9168 27.5498V20.6668H34.9333C34.3904 20.6668 33.9502 20.2266 33.9502 19.6833C33.9502 19.1404 34.3904 18.7002 34.9333 18.7002H40.8332V2.96664ZM24.1165 28.5334H26.0832H30.0165V5.97354L21.1668 13.9666V38.3665H24.1165C24.6594 38.3661 25.0996 37.9263 25.1001 37.3835V30.5H24.1165C23.5737 30.5 23.1335 30.0598 23.1335 29.5165C23.1335 28.9736 23.5737 28.5334 24.1165 28.5334ZM19.2002 15.7432L10.3501 23.7363V48.2002H13.2998C13.8427 48.1997 14.2829 47.7595 14.2834 47.2166V40.3332H13.2998C12.757 40.3332 12.3167 39.893 12.3167 39.3501C12.3167 38.8068 12.757 38.3665 13.2998 38.3665H19.2002V15.7432ZM42.7998 18.7002H50.6668V2.96664H42.7998V18.7002ZM50.1195 58.0334H58.5334V20.6655H51.6549L51.6499 20.6668L51.6454 20.6659L41.8181 20.6668H37.8835V27.5498C37.8817 29.1784 36.5619 30.4982 34.9333 30.5H27.0667V37.3835C27.0649 39.012 25.7451 40.3314 24.1165 40.3332H16.25V47.2166C16.2482 48.8452 14.9284 50.165 13.2998 50.1668H5.43327V58.0334H37.4468H50.1195Z" fill="white" stroke="white" stroke-width="2"/>
</svg>
