<svg width="58" height="57" viewBox="0 0 58 57" fill="none" xmlns="http://www.w3.org/2000/svg">
<g clip-path="url(#clip0_2_156)">
<path d="M41.0234 19.1552C42.9909 19.1552 44.5859 17.5603 44.5859 15.5928C44.5859 13.6253 42.9909 12.0303 41.0234 12.0303C39.0559 12.0303 37.4609 13.6253 37.4609 15.5928C37.4609 17.5603 39.0559 19.1552 41.0234 19.1552Z" fill="white"/>
<path d="M56.885 18.4735C55.696 15.446 53.5158 11.0779 49.8808 7.46018C46.2588 3.85495 41.9369 1.73705 38.9491 0.595048C35.669 -0.658613 31.9416 0.131591 29.4534 2.60808L20.71 11.3106C18.1182 13.8901 17.3712 17.8594 18.851 21.1876C19.3099 22.2198 19.809 23.2294 20.3423 24.2049L1.15216 43.3949C0.734567 43.8125 0.5 44.3788 0.5 44.9694V54.7662C0.5 55.9959 1.49683 56.9928 2.72655 56.9928H12.5234C13.7531 56.9928 14.7499 55.9959 14.7499 54.7662V50.7584L18.7577 50.7583C19.9875 50.7583 20.9843 49.7615 20.9843 48.5317V44.5241H24.9921C26.2218 44.5241 27.2186 43.5272 27.2186 42.2975C27.2186 41.0678 26.2218 40.071 24.9921 40.071H18.7577C17.528 40.071 16.5312 41.0678 16.5312 42.2975V46.3052L12.5234 46.3053C11.2937 46.3053 10.2968 47.3021 10.2968 48.5319V52.5397H4.95311V45.8916L24.6976 26.1472C25.423 25.4218 25.559 24.2948 25.0269 23.4178C24.2553 22.146 23.5465 20.7869 22.9203 19.3783C22.1856 17.726 22.5599 15.7523 23.8517 14.4666L32.595 5.76422C33.8433 4.52191 35.7134 4.12569 37.3596 4.7547C39.9448 5.74284 43.6708 7.56171 46.7396 10.6163C49.8273 13.6894 51.7071 17.4704 52.7402 20.1011C53.3849 21.743 52.9931 23.6083 51.7421 24.8534L42.8931 33.6609C41.6045 34.9433 39.6812 35.3183 37.9929 34.6161C36.6006 34.037 35.252 33.349 33.9851 32.5714C32.9372 31.9281 31.5661 32.2563 30.9229 33.3043C30.2796 34.3524 30.6077 35.7235 31.6557 36.3667C33.1199 37.2654 34.6767 38.0597 36.2827 38.7277C39.6384 40.1236 43.4661 39.3734 46.0345 36.8172L54.8835 28.0097C57.3933 25.5116 58.179 21.7685 56.885 18.4735Z" fill="white"/>
</g>
<defs>
<clipPath id="clip0_2_156">
<rect width="57" height="57" fill="white" transform="translate(0.5)"/>
</clipPath>
</defs>
</svg>
