<svg width="64" height="64" viewBox="0 0 64 64" fill="none" xmlns="http://www.w3.org/2000/svg">
<g clip-path="url(#clip0_2_145)">
<path d="M40.1875 2.69336H24.1875V8.02669H40.1875V2.69336ZM29.5208 37.36H34.8542V21.36H29.5208V37.36ZM50.9342 19.7067L54.7208 15.92C53.5742 14.56 52.3208 13.28 50.9608 12.16L47.1742 15.9467C43.0408 12.64 37.8408 10.6667 32.1875 10.6667C18.9342 10.6667 8.1875 21.4134 8.1875 34.6667C8.1875 47.92 18.9075 58.6667 32.1875 58.6667C45.4675 58.6667 56.1875 47.92 56.1875 34.6667C56.1875 29.04 54.2142 23.84 50.9342 19.7067ZM32.1875 53.36C21.8675 53.36 13.5208 45.0134 13.5208 34.6934C13.5208 24.3734 21.8675 16.0267 32.1875 16.0267C42.5075 16.0267 50.8542 24.3734 50.8542 34.6934C50.8542 45.0134 42.5075 53.36 32.1875 53.36Z" fill="white"/>
</g>
<defs>
<clipPath id="clip0_2_145">
<rect width="64" height="64" fill="white"/>
</clipPath>
</defs>
</svg>
