<svg width="32" height="32" viewBox="0 0 32 32" fill="none" xmlns="http://www.w3.org/2000/svg">
<path d="M21.4692 4.33313C22.9667 4.33774 24.4016 4.95385 25.4604 6.04689C26.5193 7.13993 27.1162 8.62109 27.1206 10.1669V21.8331C27.1162 23.3789 26.5193 24.8601 25.4604 25.9531C24.4016 27.0462 22.9667 27.6623 21.4692 27.6669H10.1675C8.67004 27.6623 7.23517 27.0462 6.17628 25.9531C5.1174 24.8601 4.52055 23.3789 4.51607 21.8331V10.1669C4.52055 8.62109 5.1174 7.13993 6.17628 6.04689C7.23517 4.95385 8.67004 4.33774 10.1675 4.33313H21.4692ZM21.4692 2H10.1675C5.81602 2 2.25586 5.675 2.25586 10.1669V21.8331C2.25586 26.325 5.81602 30 10.1675 30H21.4692C25.8207 30 29.3809 26.325 29.3809 21.8331V10.1669C29.3809 5.675 25.8207 2 21.4692 2Z" fill="url(#paint0_linear_2_48)"/>
<path d="M23.1641 10.167C22.8288 10.167 22.501 10.0644 22.2222 9.87206C21.9434 9.67977 21.7261 9.40646 21.5978 9.08669C21.4695 8.76692 21.4359 8.41505 21.5013 8.07558C21.5667 7.73612 21.7282 7.4243 21.9653 7.17956C22.2024 6.93481 22.5045 6.76814 22.8333 6.70062C23.1622 6.63309 23.5031 6.66775 23.8128 6.8002C24.1226 6.93266 24.3874 7.15696 24.5737 7.44474C24.76 7.73253 24.8594 8.07087 24.8594 8.41699C24.8599 8.64694 24.8163 8.87473 24.7313 9.08727C24.6463 9.29981 24.5214 9.49293 24.3639 9.65553C24.2064 9.81813 24.0193 9.94702 23.8134 10.0348C23.6075 10.1226 23.3868 10.1675 23.1641 10.167Z" fill="url(#paint1_linear_2_48)"/>
<path d="M15.8184 11.3331C16.7125 11.3331 17.5866 11.6068 18.3301 12.1196C19.0736 12.6324 19.6531 13.3613 19.9952 14.2141C20.3374 15.0668 20.427 16.0052 20.2525 16.9105C20.0781 17.8157 19.6475 18.6473 19.0152 19.3C18.3829 19.9527 17.5774 20.3971 16.7004 20.5772C15.8234 20.7573 14.9143 20.6649 14.0882 20.3116C13.2621 19.9584 12.556 19.3602 12.0593 18.5928C11.5625 17.8253 11.2973 16.923 11.2973 16C11.2986 14.7627 11.7753 13.5764 12.6229 12.7015C13.4705 11.8266 14.6197 11.3344 15.8184 11.3331ZM15.8184 9C14.4772 9 13.1661 9.41054 12.0509 10.1797C10.9357 10.9489 10.0666 12.0421 9.5533 13.3212C9.04005 14.6003 8.90576 16.0078 9.16741 17.3656C9.42907 18.7235 10.0749 19.9708 11.0233 20.9497C11.9717 21.9287 13.18 22.5954 14.4954 22.8655C15.8108 23.1356 17.1743 22.997 18.4134 22.4672C19.6525 21.9373 20.7116 21.0401 21.4568 19.889C22.2019 18.7378 22.5996 17.3845 22.5996 16C22.5996 14.1435 21.8852 12.363 20.6134 11.0503C19.3417 9.7375 17.6169 9 15.8184 9Z" fill="url(#paint2_linear_2_48)"/>
<defs>
<linearGradient id="paint0_linear_2_48" x1="15.8184" y1="-12" x2="-12.1675" y2="15.1113" gradientUnits="userSpaceOnUse">
<stop stop-color="#3C3F48"/>
<stop offset="1" stop-color="#15151A"/>
</linearGradient>
<linearGradient id="paint1_linear_2_48" x1="23.1641" y1="4.91699" x2="19.6658" y2="8.30592" gradientUnits="userSpaceOnUse">
<stop stop-color="#3C3F48"/>
<stop offset="1" stop-color="#15151A"/>
</linearGradient>
<linearGradient id="paint2_linear_2_48" x1="15.8184" y1="2" x2="1.82541" y2="15.5557" gradientUnits="userSpaceOnUse">
<stop stop-color="#3C3F48"/>
<stop offset="1" stop-color="#15151A"/>
</linearGradient>
</defs>
</svg>
