<svg width="29" height="23" viewBox="0 0 29 23" fill="none" xmlns="http://www.w3.org/2000/svg">
<g clip-path="url(#clip0_2_6130)">
<path d="M27.8231 6.1735C27.8231 3.80045 26.0776 1.89146 23.9208 1.89146C20.9993 1.75488 18.0198 1.70215 14.9749 1.70215H14.0257C10.9882 1.70215 8.00345 1.75488 5.08196 1.89199C2.9304 1.89199 1.18489 3.81152 1.18489 6.18457C1.05306 8.06139 0.997157 9.93873 1.00032 11.8161C0.995047 13.6934 1.05481 15.5725 1.17962 17.4534C1.17962 19.8264 2.92513 21.7512 5.07669 21.7512C8.14583 21.8936 11.2941 21.9569 14.495 21.9516C17.7013 21.9622 20.8407 21.8954 23.9134 21.7512C26.0702 21.7512 27.8157 19.8264 27.8157 17.4534C27.9423 15.5708 28.0003 13.6934 27.995 11.8108C28.007 9.93346 27.9497 8.05436 27.8231 6.1735ZM11.9163 16.9893V6.62701L19.5628 11.8055L11.9163 16.9893Z" stroke="white" stroke-width="1.5"/>
</g>
<defs>
<clipPath id="clip0_2_6130">
<rect width="29" height="23" fill="white"/>
</clipPath>
</defs>
</svg>
