<svg width="29" height="31" viewBox="0 0 29 31" fill="none" xmlns="http://www.w3.org/2000/svg">
<path d="M27.4537 7.94922C27.6554 7.28828 27.4537 6.80781 26.5616 6.80781H23.5954C22.8471 6.80781 22.5016 7.22852 22.3 7.67852C22.3 7.67852 20.7741 11.5223 18.6433 14.0143C17.9522 14.735 17.6356 14.9752 17.2612 14.9752C17.0596 14.9752 16.8002 14.735 16.8002 14.0746V7.91816C16.8002 7.1377 16.5702 6.77734 15.9364 6.77734H11.2715C10.8104 6.77734 10.5227 7.1377 10.5227 7.49805C10.5227 8.24863 11.5881 8.4291 11.7031 10.5309V15.0977C11.7031 16.0885 11.5332 16.2695 11.1559 16.2695C10.1483 16.2695 7.70086 12.3959 6.23273 7.98203C5.94727 7.10781 5.65727 6.77734 4.90848 6.77734H1.91389C1.05012 6.77734 0.90625 7.19746 0.90625 7.64805C0.90625 8.45898 1.91389 12.5424 5.59949 17.9471C8.04693 21.6385 11.5309 23.6225 14.6694 23.6225C16.5702 23.6225 16.8002 23.1719 16.8002 22.4213V19.6287C16.8002 18.7281 16.9729 18.5781 17.5779 18.5781C18.0095 18.5781 18.7871 18.8178 20.5436 20.5896C22.5588 22.6914 22.9043 23.6523 24.0275 23.6523H26.9932C27.857 23.6523 28.2603 23.2018 28.0297 22.3311C27.7709 21.4604 26.7916 20.1994 25.5245 18.6982C24.8335 17.858 23.797 16.927 23.4804 16.4764C23.0488 15.8758 23.1637 15.6355 23.4804 15.0953C23.4515 15.0953 27.0799 9.75039 27.4537 7.94688" stroke="white" stroke-width="1.5"/>
</svg>
