<svg width="28" height="29" viewBox="0 0 28 29" fill="none" xmlns="http://www.w3.org/2000/svg">
<path d="M19.104 3.92689C20.4565 3.93108 21.7526 4.48943 22.709 5.47999C23.6654 6.47056 24.2045 7.81286 24.2085 9.21373V19.7863C24.2045 21.1871 23.6654 22.5294 22.709 23.52C21.7526 24.5106 20.4565 25.0689 19.104 25.0731H8.89602C7.54345 25.0689 6.24744 24.5106 5.29103 23.52C4.33462 22.5294 3.79552 21.1871 3.79148 19.7863V9.21373C3.79552 7.81286 4.33462 6.47056 5.29103 5.47999C6.24744 4.48943 7.54345 3.93108 8.89602 3.92689H19.104ZM19.104 1.8125H8.89602C4.96562 1.8125 1.75 5.14297 1.75 9.21373V19.7863C1.75 23.857 4.96562 27.1875 8.89602 27.1875H19.104C23.0344 27.1875 26.25 23.857 26.25 19.7863V9.21373C26.25 5.14297 23.0344 1.8125 19.104 1.8125Z" fill="white"/>
<path d="M20.6348 9.21362C20.3319 9.21362 20.0359 9.12061 19.7841 8.94634C19.5322 8.77208 19.336 8.52439 19.2201 8.2346C19.1042 7.9448 19.0739 7.62593 19.1329 7.31828C19.192 7.01064 19.3379 6.72806 19.552 6.50626C19.7662 6.28446 20.039 6.13342 20.336 6.07222C20.6331 6.01103 20.941 6.04244 21.2208 6.16247C21.5006 6.28251 21.7397 6.48578 21.908 6.74659C22.0762 7.00739 22.166 7.31402 22.166 7.62769C22.1665 7.83608 22.1271 8.04251 22.0503 8.23513C21.9735 8.42774 21.8608 8.60275 21.7185 8.75011C21.5762 8.89747 21.4072 9.01427 21.2213 9.09381C21.0353 9.17335 20.836 9.21407 20.6348 9.21362Z" fill="white"/>
<path d="M14 10.2706C14.8076 10.2706 15.5971 10.5187 16.2687 10.9834C16.9402 11.4481 17.4636 12.1087 17.7727 12.8815C18.0817 13.6543 18.1626 14.5047 18.0051 15.3251C17.8475 16.1455 17.4586 16.8991 16.8875 17.4906C16.3164 18.0821 15.5888 18.4849 14.7967 18.6481C14.0045 18.8113 13.1835 18.7275 12.4373 18.4074C11.6911 18.0873 11.0534 17.5452 10.6047 16.8497C10.156 16.1542 9.91649 15.3365 9.91649 14.5C9.91764 13.3787 10.3482 12.3036 11.1138 11.5107C11.8794 10.7178 12.9173 10.2718 14 10.2706ZM14 8.15625C12.7886 8.15625 11.6044 8.5283 10.5971 9.22536C9.58988 9.92242 8.80483 10.9132 8.34124 12.0724C7.87765 13.2315 7.75636 14.507 7.99269 15.7376C8.22903 16.9682 8.81238 18.0985 9.66897 18.9857C10.5256 19.8729 11.6169 20.4771 12.8051 20.7219C13.9932 20.9666 15.2247 20.841 16.3439 20.3609C17.4631 19.8807 18.4197 19.0676 19.0928 18.0244C19.7658 16.9812 20.125 15.7547 20.125 14.5C20.125 12.8175 19.4797 11.204 18.331 10.0143C17.1824 8.82461 15.6245 8.15625 14 8.15625Z" fill="white"/>
</svg>
