<svg width="54" height="54" viewBox="0 0 54 54" fill="none" xmlns="http://www.w3.org/2000/svg">
<g clip-path="url(#clip0_2_141)">
<path d="M51.8876 8.29859H41.5521V5.54817C41.5521 4.98869 41.33 4.45228 40.9345 4.05637C35.5252 -1.35301 26.7688 -1.35384 21.3586 4.05637C20.9631 4.45228 20.741 4.98869 20.741 5.54817V8.29859H12.5149V2.11138C12.5149 0.946695 11.5706 0.00242233 10.4055 0.00242233C4.66822 0.00242233 0 4.67023 0 10.408V43.5934C0 49.3312 4.66822 53.999 10.4055 53.999H51.8876C53.0527 53.999 53.997 53.0547 53.997 51.89V10.408C53.9966 9.24286 53.0523 8.29859 51.8876 8.29859ZM24.9594 6.47225C28.5272 3.46764 33.7668 3.46846 37.3338 6.47225V31.2104C33.4512 29.2745 28.8419 29.2745 24.9594 31.2104V6.47225ZM36.2931 35.4637L31.1466 40.6102L25.9996 35.4637C29.1303 33.4812 33.1628 33.4812 36.2931 35.4637ZM4.21833 10.408C4.21833 7.73664 5.91983 5.45547 8.29658 4.59112V33.4025C6.79406 33.7132 5.40897 34.3485 4.21833 35.2318V10.408ZM49.7782 49.7806H10.4055C6.99388 49.7806 4.21833 47.0051 4.21833 43.5934C4.21833 40.1818 6.99388 37.4062 10.4055 37.4062C11.5706 37.4062 12.5149 36.462 12.5149 35.2969V12.5169H20.741C20.8173 36.5683 20.4337 35.8633 21.3586 36.7883L29.6548 45.0848C30.4779 45.908 31.8144 45.9084 32.638 45.0848C41.4627 36.2547 41.0182 36.7363 41.1986 36.4657C41.845 35.4971 41.4351 36.0022 41.5521 12.5169H49.7782V49.7806Z" fill="white"/>
</g>
<defs>
<clipPath id="clip0_2_141">
<rect width="54" height="54" fill="white"/>
</clipPath>
</defs>
</svg>
