<svg width="34" height="42" viewBox="0 0 34 42" fill="none" xmlns="http://www.w3.org/2000/svg">
<path d="M26.0733 40.7158C26.25 41.0905 26.697 41.2509 27.0716 41.0742L33.1765 38.1945C33.5512 38.0178 33.7116 37.5709 33.5349 37.1962C33.3582 36.8216 32.9112 36.6612 32.5366 36.8379L27.11 39.3976L24.5503 33.971C24.3736 33.5964 23.9266 33.4359 23.552 33.6126C23.1774 33.7894 23.0169 34.2363 23.1937 34.6109L26.0733 40.7158ZM0.751656 2.14588C7.318 2.14588 16.3984 4.07416 22.4384 9.74276C25.4426 12.5622 27.7079 16.3169 28.5498 21.2654C29.3934 26.2244 28.8149 32.4284 26.0458 40.1425L27.4576 40.6493C30.2884 32.7633 30.9265 26.2924 30.0285 21.0138C29.1287 15.7249 26.694 11.6796 23.4649 8.649C17.0383 2.6176 7.51865 0.645882 0.751656 0.645882L0.751656 2.14588Z" fill="white"/>
</svg>
