<svg width="17" height="17" viewBox="0 0 17 17" fill="none" xmlns="http://www.w3.org/2000/svg">
<path d="M12.7207 9.19341L12.7207 7.90548L9.50296 7.90548L9.50296 0.97501L16.4336 0.975011L16.4336 7.90548L16.4334 7.90548L16.4334 9.19341C16.4334 11.8087 15.681 13.7507 14.1968 14.9658C13.1701 15.8063 11.8705 16.2324 10.3341 16.2324L10.3341 12.5198C11.1681 12.5198 12.7207 12.5198 12.7207 9.19341ZM1.26463 12.5198L1.26463 16.2324C2.80098 16.2324 4.10056 15.8063 5.12725 14.9658C6.61142 13.7507 7.36398 11.8086 7.36398 9.19341L7.36398 7.90548L7.36398 0.97501L0.433596 0.975009L0.433595 7.90548L3.65128 7.90548L3.65128 9.19341C3.6512 12.5198 2.09868 12.5198 1.26463 12.5198Z" fill="#E1A600"/>
</svg>
